<svg fill="none" height="32" viewBox="0 0 32 32" width="32" xmlns="http://www.w3.org/2000/svg" xmlns:xlink="http://www.w3.org/1999/xlink"><linearGradient id="a" gradientUnits="userSpaceOnUse" x1="31.9681" x2=".149178" y1=".031868" y2="31.8508"><stop offset="0" stop-color="#b94dff"/><stop offset=".22" stop-color="#a14dff"/><stop offset=".49" stop-color="#8c4dff"/><stop offset=".75" stop-color="#804dff"/><stop offset="1" stop-color="#7c4dff"/></linearGradient><path d="m16 32c8.8366 0 16-7.1634 16-16 0-8.83656-7.1634-16-16-16-8.83656 0-16 7.16344-16 16 0 8.8366 7.16344 16 16 16z" fill="url(#a)"/><g fill="#fff"><path d="m24.6307 11.1183c.2597.7154.3926 1.4796.3865 2.2648-.0149 1.7386-.7099 3.3619-1.9569 4.5716-.0292.0278-.0583.0556-.0875.0841-.2922.2814-.5967.5574-.9052.8205l-.0597.065h-.0183c-.5065.43-1.0415.8395-1.5901 1.2199-.0108.0082-.0217.0163-.0332.0231-.9412.6509-1.9427 1.2266-2.9761 1.7128l-.0136.0068c-.0156.0068-.0298.0142-.0447.021-.6408.299-1.3019.5676-1.9651.7981l-.021.0061s-.0034.0007-.0055.0014c-.261.0908-.5092.1715-.7506.2454 1.087 1.0219 2.4974 1.5888 4.0068 1.603 1.6192.017 3.1402-.6075 4.28-1.7528.0346-.0353.0692-.0705.1045-.1058.0434-.0448.0874-.0895.1308-.1349.0265-.0272.0529-.0543.0787-.0814.0631-.0658.1268-.1316.1885-.1973 2.376-2.5089 3.8807-4.9317 3.8807-6.2899 0-1.1012-.9887-2.9015-2.629-4.8815z"/><path d="m18.5924 25.0366c-1.7521-.017-3.3802-.7222-4.5845-1.9854l-.0414-.0434c-.2881-.3038-.5695-.6191-.8367-.9372l-.0624-.0623v-.0129c-.4292-.5133-.8367-1.0531-1.2138-1.6044l-.004-.0061c-.0102-.0156-.0177-.0278-.0258-.04-.6333-.9283-1.1982-1.921-1.6769-2.9489-.0122-.0258-.0258-.0536-.0393-.0828-.29701-.6469-.55943-1.3005-.78049-1.9447-.09018-.2611-.17426-.5228-.25224-.7845-1.03272 1.0971-1.6057 2.5197-1.6179 4.0379-.01357 1.6064.60213 3.1172 1.73317 4.255.03458.0352.06917.0692.10375.1031.05221.0522.10374.1037.15663.1552.02577.0258.05222.0509.07798.076.07256.0705.14443.1403.21631.2095 2.49599 2.3855 4.90459 3.8963 6.25459 3.8963 1.1033 0 2.9144-1.0097 4.9012-2.6805-.7079.2631-1.4653.4001-2.2451.4001z"/><path d="m8.93794 14.0462c.02915-.0284.05831-.0569.08815-.0854.29564-.2841.60281-.5621.91269-.8259l.0156-.0142c.51802-.4415 1.06252-.8612 1.61792-1.247.0095-.0068.0217-.015.0339-.0231.9473-.6564 1.9576-1.2388 2.9998-1.7291.0149-.0075.0305-.0149.0454-.0224l.0123-.0054c.6333-.29564 1.2795-.55874 1.9237-.78318l.0542-.01899c.2509-.08815.5086-.17155.769-.25089-1.0877-1.02186-2.4981-1.58874-4.0082-1.60298-1.6206-.01424-3.1402.60688-4.27935 1.75284-.03661.03662-.07323.07391-.10917.11053-.04068.04204-.08205.0834-.12205.12544-.03187.03187-.06239.06442-.09358.09629-.05831.06103-.11731.12273-.17494.18376-2.37803 2.51028-3.88405 4.93438-3.88405 6.29328 0 1.1012.98932 2.9022 2.6296 4.8815-.26039-.7147-.39329-1.4789-.38651-2.2634.01424-1.7386.70859-3.362 1.95559-4.5717z"/><path d="m17.9916 8.94843.0414.04339c.2902.3065.5709.6218.8361.93711l.0623.06238v.01289c.4232.5058.8273 1.0402 1.203 1.5887l.0108.0156c.6591.9636 1.2416 1.9875 1.7305 3.0439l.0156.0333c.297.6475.5594 1.3019.7804 1.9454l.0028.0081c.0888.257.1715.5167.2502.7764 1.032-1.0964 1.605-2.519 1.6179-4.0366.0135-1.607-.6022-3.1178-1.7332-4.25563-.0353-.03526-.0705-.06984-.1051-.1051-.0529-.05221-.1051-.10443-.158-.15664-.0237-.02238-.0468-.04543-.0705-.06781-.0739-.07255-.1485-.14511-.2231-.21563-2.4947-2.38481-4.9032-3.89557-6.2533-3.89557-1.1032 0-2.9144 1.00966-4.9011 2.68045.7269-.26987 1.5066-.40752 2.3088-.40007 1.7515.01628 3.3803.72148 4.5845 1.98543z"/></g></svg>