<svg width="20" height="20" viewBox="0 0 20 20" fill="none" xmlns="http://www.w3.org/2000/svg">
<path d="M5.08424 4.23847C5.37617 4.37498 5.68786 4.44406 6.01022 4.44406C6.87041 4.44406 7.66401 3.94242 8.03244 3.16692C8.56532 2.04685 8.10974 0.752382 6.9946 0.221222C6.68622 0.0748403 6.35974 0 6.02256 0C5.17057 0 4.40823 0.474507 4.03324 1.23931C3.77008 1.77632 3.7372 2.38816 3.93949 2.963C4.14097 3.53454 4.54804 3.98764 5.08424 4.23847Z" fill="white"/>
<path d="M19.1242 13.9391C18.8866 14.245 18.5724 14.4078 18.2155 14.4078C17.8841 14.4078 17.542 14.2713 17.1958 13.9991C16.2122 13.2269 14.9926 12.3157 14.6983 12.1471C14.2345 12.1816 13.7764 12.2244 13.255 12.2836L11.7945 11.9053L12.6029 12.365L12.9195 12.5534C13.116 12.671 13.315 12.782 13.5165 12.8872C14.0749 13.1759 14.2435 13.6274 14.3825 14.0994C14.945 16.046 15.2829 17.4291 15.4408 18.4579C15.6094 19.5418 14.9894 19.8823 14.4425 19.976C14.3553 19.9917 14.2723 19.9999 14.1974 19.9999C13.4721 19.9999 13.2459 19.328 13.079 18.8387C12.8907 18.2803 12.6917 17.5213 12.5017 16.7861C12.412 16.4357 12.3224 16.0953 12.241 15.8C12.1982 15.6421 12.1061 15.5032 12.0461 15.4662L11.7212 15.2606C10.6522 14.5829 9.54438 13.8831 8.42753 13.2548C6.14542 11.9719 5.42099 9.80322 5.04668 8.05816C5.04257 8.03925 5.03845 8.01951 5.03352 8.00224C4.98006 8.04912 4.92661 8.09599 4.87316 8.14369C4.43235 8.53679 4.01543 8.90932 3.67989 9.33037C3.53268 9.51869 3.28433 10.6881 3.17907 11.1865C3.11739 11.4776 3.06805 11.7062 3.03351 11.8345C2.86492 12.425 2.471 12.7646 1.94963 12.7646C1.85341 12.7646 1.75719 12.7539 1.65687 12.7301C0.916739 12.5672 0.545032 12.0779 0.656043 11.4258C0.685647 11.2481 0.852589 10.4102 0.883012 10.2514C1.19057 8.70949 2.09601 7.21269 3.36155 6.14531C3.82126 5.75799 4.25793 5.3287 4.68309 4.89859C4.74066 4.83856 4.84757 4.82376 4.92486 4.8583C5.31631 5.04415 5.58768 5.0787 6.01122 5.0787C6.85169 5.0787 7.64527 4.70453 8.18386 4.08444C8.30969 3.94135 8.51281 3.88954 8.69043 3.96273C9.04159 4.10829 9.39439 4.25138 9.74061 4.39284C10.4207 4.6708 11.1247 4.95781 11.813 5.24646C12.0762 5.35748 12.2472 5.35584 12.4931 5.2333C13.1477 4.91259 13.8237 4.61324 14.4758 4.32458L14.9931 4.09349C15.6946 3.78098 16.3188 3.9652 16.6272 4.55155C16.7875 4.85501 16.8237 5.16505 16.7316 5.44794C16.6313 5.75385 16.3854 6.01044 16.0219 6.18971C15.5408 6.42737 15.0466 6.65598 14.5696 6.87803C14.0753 7.10664 13.5663 7.34184 13.0745 7.58609C12.461 7.88955 11.8344 7.89614 11.1411 7.60089C10.8714 7.48576 9.92235 7.11734 9.64193 7.01043C9.81956 7.84843 10.183 8.64037 10.7538 9.37802C10.7669 9.43558 10.8327 9.48904 10.8952 9.48904C11.0622 9.47588 11.2201 9.46519 11.3804 9.4545C12.0712 9.40515 12.7859 9.35581 13.4849 9.2596C14.6288 9.1017 15.5589 9.39446 16.387 10.1683C16.8746 10.6239 17.4117 11.054 17.9314 11.4685C18.2011 11.6848 18.4791 11.9093 18.7505 12.1338C19.4043 12.6815 19.5498 13.3896 19.1238 13.9389L19.1242 13.9391Z" fill="white"/>
</svg>
