<svg width="24" height="24" viewBox="0 0 24 24" fill="none" xmlns="http://www.w3.org/2000/svg">
<path fill-rule="evenodd" clip-rule="evenodd" d="M10.1162 22.8625L11.6789 22.1627C11.8832 22.0712 12.1169 22.0712 12.3212 22.1627L13.8838 22.8625C14.5636 23.167 15.3635 22.9526 15.7998 22.3493L16.8032 20.9618C16.9345 20.7804 17.1367 20.6634 17.3596 20.6405L19.0628 20.4654C19.8036 20.3892 20.3892 19.8036 20.4654 19.0628L20.6405 17.3596C20.6634 17.1367 20.7804 16.9345 20.9618 16.8032L22.3493 15.7998C22.9526 15.3635 23.167 14.5636 22.8625 13.8838L22.1627 12.3212C22.0712 12.1169 22.0712 11.8831 22.1627 11.6789L22.8625 10.1162C23.167 9.43647 22.9526 8.63654 22.3493 8.20023L20.9618 7.19682C20.7804 7.0656 20.6634 6.86333 20.6405 6.64048L20.4654 4.93721C20.3892 4.19641 19.8036 3.6109 19.0628 3.53462L17.3596 3.35951C17.1367 3.33664 16.9345 3.21969 16.8032 3.03829L15.7998 1.65074C15.3635 1.04745 14.5636 0.833048 13.8838 1.13739L12.3212 1.83737C12.1169 1.92884 11.8832 1.92884 11.6789 1.83737L10.1162 1.13739C9.43647 0.833052 8.63654 1.04745 8.20023 1.65074L7.19682 3.03829C7.0656 3.21969 6.86333 3.33664 6.64048 3.35951L4.93721 3.53462C4.19641 3.61088 3.6109 4.19641 3.53462 4.93721L3.35951 6.64048C3.33664 6.86332 3.21969 7.0656 3.03829 7.19682L1.65074 8.20023C1.04745 8.63658 0.833048 9.43647 1.13739 10.1162L1.83737 11.6789C1.92884 11.8832 1.92884 12.1169 1.83737 12.3212L1.13739 13.8838C0.833051 14.5636 1.04745 15.3635 1.65074 15.7998L3.03829 16.8032C3.21969 16.9345 3.33664 17.1367 3.35951 17.3596L3.53462 19.0628C3.61088 19.8036 4.19641 20.3892 4.93721 20.4654L6.64048 20.6405C6.86332 20.6634 7.0656 20.7804 7.19682 20.9618L8.20023 22.3493C8.63658 22.9526 9.43647 23.167 10.1162 22.8625ZM17.6381 10.3589C18.1124 9.89603 18.1217 9.13629 17.6589 8.66195C17.196 8.18761 16.4363 8.1783 15.9619 8.64114L10.6041 13.8692L7.98732 11.5944C7.48715 11.1596 6.7292 11.2125 6.2944 11.7127C5.85959 12.2129 5.91258 12.9708 6.41275 13.4056L9.86372 16.4056C10.3351 16.8154 11.042 16.7951 11.4891 16.3589L17.6381 10.3589Z" fill="#9EEB00"/>
</svg>
